<?xml version="1.0" standalone="no"?>
<!DOCTYPE svg PUBLIC "-//W3C//DTD SVG 20010904//EN"
 "http://www.w3.org/TR/2001/REC-SVG-20010904/DTD/svg10.dtd">
<svg version="1.0" xmlns="http://www.w3.org/2000/svg"
 width="1024.000000pt" height="1024.000000pt" viewBox="0 0 1024.000000 1024.000000"
 preserveAspectRatio="xMidYMid meet">

<g transform="translate(0.000000,1024.000000) scale(0.100000,-0.100000)"
fill="#ffffff" stroke="none">
<path d="M4140 8268 c-299 -178 -519 -443 -618 -743 -53 -158 -66 -244 -65
-415 1 -321 103 -579 324 -818 l56 -60 7 64 c9 87 51 226 89 300 l33 60 -38
58 c-260 404 -65 985 421 1253 36 20 67 37 69 39 2 1 -19 35 -46 75 -27 41
-69 111 -93 156 -24 46 -46 83 -49 82 -3 0 -43 -23 -90 -51z"/>
<path d="M6009 8278 c-12 -24 -53 -92 -90 -151 -38 -60 -69 -112 -69 -115 0
-4 26 -20 57 -37 142 -75 305 -220 389 -346 113 -170 160 -335 151 -529 -8
-163 -44 -281 -122 -394 l-26 -39 39 -86 c35 -75 60 -160 89 -305 l8 -39 53
54 c153 157 257 363 302 599 30 156 25 377 -13 520 -88 337 -282 604 -595 818
-66 45 -127 85 -135 88 -11 4 -22 -7 -38 -38z"/>
<path d="M4535 7713 c-113 -59 -142 -191 -64 -286 22 -27 45 -41 85 -53 43
-12 60 -23 79 -52 23 -33 25 -46 25 -139 0 -70 -4 -103 -11 -103 -26 0 -184
-116 -257 -188 -129 -129 -243 -321 -292 -492 -12 -41 -24 -119 -27 -173 l-6
-99 79 40 c79 39 200 80 304 102 38 7 248 11 679 10 585 0 629 -1 723 -20 109
-23 190 -51 287 -100 l64 -32 -6 94 c-19 300 -220 625 -499 808 l-98 64 0 86
c0 110 18 142 106 185 78 38 91 50 116 99 44 85 3 202 -84 245 -90 43 -195 15
-280 -76 -89 -96 -138 -227 -138 -370 l0 -83 -27 7 c-16 5 -99 8 -186 8 l-157
0 0 61 c0 190 -104 389 -235 450 -59 28 -135 31 -180 7z"/>
<path d="M7157 7003 c-1 -1 2 -47 7 -104 25 -274 -49 -498 -228 -686 -100
-106 -275 -216 -418 -262 -21 -7 -38 -15 -38 -19 0 -3 29 -34 64 -68 34 -35
87 -95 117 -134 63 -82 55 -82 194 -16 135 64 231 130 325 226 137 137 224
281 290 478 37 112 50 218 50 419 l0 162 -181 3 c-99 2 -181 2 -182 1z"/>
<path d="M2742 6788 c5 -188 8 -224 31 -311 77 -291 273 -554 529 -712 73 -46
248 -127 248 -116 0 14 154 204 197 242 l40 36 -76 31 c-99 41 -250 128 -323
186 -126 101 -226 258 -269 421 -23 85 -32 307 -16 393 l7 42 -186 0 -186 0 4
-212z"/>
<path d="M4400 5961 c-123 -27 -237 -74 -338 -140 -251 -167 -461 -476 -539
-799 -26 -105 -27 -114 -30 -539 -5 -489 -1 -532 66 -733 81 -240 211 -461
376 -638 237 -252 579 -428 948 -486 l87 -13 0 1683 0 1684 -242 -1 c-194 0
-260 -4 -328 -18z"/>
<path d="M5298 4299 l3 -1683 37 2 c109 9 353 77 490 138 469 207 825 657 922
1161 19 99 21 151 23 529 1 310 -1 436 -11 484 -37 188 -135 417 -242 568
-153 218 -368 379 -595 448 -86 26 -101 28 -360 32 l-270 4 3 -1683z"/>
<path d="M3313 5350 c-276 -139 -461 -319 -578 -565 -55 -115 -89 -227 -100
-332 l-7 -63 191 0 191 0 0 43 c0 62 26 159 59 225 44 87 99 151 184 212 l76
55 0 51 c2 105 44 284 96 407 11 26 -4 22 -112 -33z"/>
<path d="M6851 5353 c43 -100 70 -217 76 -325 l6 -107 51 -32 c72 -46 167
-146 204 -217 36 -67 60 -153 64 -229 l3 -53 189 0 189 0 -6 63 c-15 158 -110
387 -219 524 -127 160 -267 272 -470 374 -54 27 -100 49 -102 49 -3 0 4 -21
15 -47z"/>
<path d="M3230 4112 c-144 -101 -299 -281 -379 -439 -85 -170 -111 -308 -111
-600 l0 -213 185 0 c126 0 185 3 185 11 0 6 -5 64 -11 129 -19 213 14 411 94
549 17 30 62 88 100 128 l69 73 -23 82 c-15 58 -24 121 -27 206 -2 67 -7 122
-11 121 -3 0 -35 -21 -71 -47z"/>
<path d="M6947 4028 c-4 -91 -12 -156 -27 -204 l-21 -72 58 -58 c108 -109 173
-237 203 -398 13 -68 9 -295 -6 -393 l-7 -43 188 0 187 0 -4 253 c-4 230 -7
260 -30 347 -74 276 -255 520 -509 684 l-26 16 -6 -132z"/>
</g>
</svg>
